<svg width="1000" height="1000" viewBox="0 0 1000 1000" xmlns="http://www.w3.org/2000/svg"><defs/><path fill="#76af28" transform="matrix(0.8285791661173797 0 0 0.8285791661173797 0.9914114948601069 -5.385205937847048)" d="M 423.45277749592 697.12436526863 C 411.15277749592 697.12436526863 402.85277749592 692.82436526863 402.55277749592 692.62436526863 L 401.05277749592 691.82436526863 L 400.75277749592 690.12436526863 C 393.85277749592 649.02436526863 349.35277749592 497.02436526863 348.85277749592 495.52436526863 C 348.35277749592 493.72436526863 349.35277749592 491.82436526863 351.15277749592 491.22436526863 C 352.95277749592 490.72436526863 354.85277749592 491.72436526863 355.45277749592 493.52436526863 C 357.25277749592 499.72436526863 399.35277749592 643.22436526863 407.15277749592 687.12436526863 C 409.75277749592 688.22436526863 415.65277749592 690.22436526863 423.35277749592 690.22436526863 C 423.35277749592 690.22436526863 423.35277749592 690.22436526863 423.35277749592 690.22436526863 C 431.15277749592 690.22436526863 437.35277749592 688.12436526863 440.15277749592 687.12436526863 C 447.95277749592 643.22436526863 489.75277749592 499.72436526863 491.55277749592 493.52436526863 C 492.05277749592 491.72436526863 493.95277749592 490.62436526863 495.85277749592 491.22436526863 C 497.65277749592 491.72436526863 498.75277749592 493.62436526863 498.15277749592 495.52436526863 C 497.75277749592 497.02436526863 453.45277749592 649.02436526863 446.65277749592 690.22436526863 L 446.35277749592 691.92436526863 L 444.75277749592 692.72436526863 C 444.55277749592 692.82436526863 435.75277749592 697.12436526863 423.45277749592 697.12436526863 C 423.45277749592 697.12436526863 423.45277749592 697.12436526863 423.45277749592 697.12436526863 Z"/><path fill="#03445e" transform="matrix(0.8285791661173797 0 0 0.8285791661173797 0.9914114948601069 -5.385205937847048)" d="M 475.95277749592 496.82436526863 L 440.85277749592 630.82436526863 L 473.75277749592 497.22436526863 C 471.55277749592 497.62436526863 468.95277749592 498.02436526863 466.15277749592 498.32436526863 L 433.15277749592 639.22436526863 L 462.65277749592 498.62436526863 C 460.45277749592 498.82436526863 458.05277749592 498.92436526863 455.55277749592 499.02436526863 L 426.75277749592 651.22436526863 L 451.75277749592 499.12436526863 C 449.05277749592 499.62436526863 445.25277749592 499.72436526863 444.85277749592 499.72436526863 L 421.55277749592 651.22436526863 L 394.65277749592 502.02436526863 C 392.15277749592 501.92436526863 389.75277749592 501.82436526863 387.55277749592 501.62436526863 L 416.05277749592 639.12436526863 L 383.95277749592 501.32436526863 C 381.15277749592 501.02436526863 378.55277749592 500.72436526863 376.35277749592 500.32436526863 L 408.75277749592 631.82436526863 L 374.05277749592 500.02436526863 C 367.55277749592 498.82436526863 364.15277749592 497.52436526863 364.15277749592 497.52436526863 C 364.15277749592 497.52436526863 409.25277749592 671.42436526863 410.85277749592 683.12436526863 C 410.85277749592 683.12436526863 417.25277749592 685.92436526863 423.75277749592 685.92436526863 C 430.25277749592 685.92436526863 436.65277749592 683.12436526863 436.65277749592 683.12436526863 C 438.25277749592 671.42436526863 485.25277749592 494.52436526863 485.25277749592 494.52436526863 C 485.25277749592 494.52436526863 482.05277749592 495.62436526863 475.95277749592 496.82436526863 Z"/><path fill="#76af28" transform="matrix(0.8285791661173797 0 0 0.8285791661173797 0.9914114948601069 -5.385205937847048)" d="M 376.95277749592 716.52436526863 C 368.25277749592 725.22436526863 359.35277749592 728.02436526863 358.95277749592 728.12436526863 L 357.35277749592 728.62436526863 L 355.95277749592 727.62436526863 C 321.95277749592 703.52436526863 183.05277749592 627.52436526863 181.65277749592 626.72436526863 C 179.95277749592 625.82436526863 179.35277749592 623.72436526863 180.25277749592 622.02436526863 C 181.15277749592 620.32436526863 183.25277749592 619.72436526863 184.95277749592 620.62436526863 C 190.55277749592 623.72436526863 321.85277749592 695.52436526863 358.45277749592 720.92436526863 C 361.05277749592 719.82436526863 366.65277749592 717.02436526863 372.05277749592 711.62436526863 C 372.05277749592 711.62436526863 372.05277749592 711.62436526863 372.05277749592 711.62436526863 C 377.55277749592 706.12436526863 380.55277749592 700.22436526863 381.75277749592 697.52436526863 C 356.25277749592 660.92436526863 284.25277749592 529.92436526863 281.15277749592 524.22436526863 C 280.25277749592 522.52436526863 280.85277749592 520.42436526863 282.55277749592 519.52436526863 C 284.25277749592 518.62436526863 286.35277749592 519.22436526863 287.25277749592 520.92436526863 C 288.05277749592 522.32436526863 364.25277749592 661.12436526863 388.45277749592 695.02436526863 L 389.45277749592 696.42436526863 L 388.85277749592 698.12436526863 C 388.75277749592 698.62436526863 385.55277749592 707.82436526863 376.95277749592 716.52436526863 C 376.95277749592 716.52436526863 376.95277749592 716.52436526863 376.95277749592 716.52436526863 Z"/><path fill="#03445e" transform="matrix(0.8285791661173797 0 0 0.8285791661173797 0.9914114948601069 -5.385205937847048)" d="M 272.35277749592 537.82436526863 L 342.25277749592 657.42436526863 L 271.05277749592 539.72436526863 C 269.75277749592 541.62436526863 268.15277749592 543.62436526863 266.45277749592 545.92436526863 L 342.75277749592 668.82436526863 L 264.25277749592 548.52436526863 C 262.85277749592 550.22436526863 261.25277749592 552.02436526863 259.55277749592 553.82436526863 L 346.85277749592 681.82436526863 L 256.85277749592 556.62436526863 C 255.25277749592 558.92436526863 252.65277749592 561.72436526863 252.35277749592 561.92436526863 L 343.05277749592 685.62436526863 L 218.55277749592 599.12436526863 C 216.75277749592 600.82436526863 214.95277749592 602.42436526863 213.25277749592 603.92436526863 L 330.75277749592 680.82436526863 L 210.55277749592 606.12436526863 C 208.35277749592 607.92436526863 206.25277749592 609.52436526863 204.45277749592 610.82436526863 L 320.25277749592 680.92436526863 L 202.55277749592 612.02436526863 C 197.15277749592 615.72436526863 193.75277749592 617.32436526863 193.75277749592 617.32436526863 C 193.75277749592 617.32436526863 348.65277749592 708.32436526863 357.95277749592 715.52436526863 C 357.95277749592 715.52436526863 364.45277749592 713.02436526863 369.05277749592 708.32436526863 C 373.65277749592 703.72436526863 376.15277749592 697.22436526863 376.15277749592 697.22436526863 C 369.05277749592 687.82436526863 277.15277749592 529.52436526863 277.15277749592 529.52436526863 C 277.15277749592 529.52436526863 275.85277749592 532.62436526863 272.35277749592 537.82436526863 Z"/><path fill="#76af28" transform="matrix(0.8285791661173797 0 0 0.8285791661173797 0.9914114948601069 -5.385205937847048)" d="M 470.05277749592 716.32436526863 C 461.35277749592 707.62436526863 458.55277749592 698.72436526863 458.45277749592 698.32436526863 L 457.95277749592 696.72436526863 L 458.95277749592 695.32436526863 C 483.15277749592 661.32436526863 559.15277749592 522.42436526863 559.85277749592 521.02436526863 C 560.75277749592 519.32436526863 562.85277749592 518.72436526863 564.55277749592 519.62436526863 C 566.25277749592 520.52436526863 566.85277749592 522.62436526863 565.95277749592 524.32436526863 C 562.85277749592 529.92436526863 491.05277749592 661.22436526863 465.65277749592 697.82436526863 C 466.75277749592 700.42436526863 469.55277749592 706.02436526863 474.95277749592 711.42436526863 C 474.95277749592 711.42436526863 474.95277749592 711.42436526863 474.95277749592 711.42436526863 C 480.45277749592 716.92436526863 486.35277749592 719.92436526863 489.05277749592 721.12436526863 C 525.65277749592 695.62436526863 656.65277749592 623.62436526863 662.35277749592 620.52436526863 C 664.05277749592 619.62436526863 666.15277749592 620.22436526863 667.05277749592 621.92436526863 C 667.95277749592 623.62436526863 667.35277749592 625.72436526863 665.65277749592 626.62436526863 C 664.25277749592 627.42436526863 525.45277749592 703.62436526863 491.55277749592 727.82436526863 L 490.15277749592 728.82436526863 L 488.45277749592 728.22436526863 C 488.05277749592 728.22436526863 478.75277749592 725.02436526863 470.05277749592 716.32436526863 C 470.05277749592 716.42436526863 470.05277749592 716.32436526863 470.05277749592 716.32436526863 Z"/><path fill="#03445e" transform="matrix(0.8285791661173797 0 0 0.8285791661173797 0.9914114948601069 -5.385205937847048)" d="M 648.85277749592 611.82436526863 L 529.25277749592 681.72436526863 L 646.95277749592 610.52436526863 C 645.05277749592 609.22436526863 643.05277749592 607.62436526863 640.85277749592 605.92436526863 L 517.95277749592 682.22436526863 L 638.05277749592 603.62436526863 C 636.35277749592 602.22436526863 634.55277749592 600.62436526863 632.75277749592 598.92436526863 L 504.75277749592 686.22436526863 L 629.95277749592 596.32436526863 C 627.65277749592 594.72436526863 624.85277749592 592.12436526863 624.65277749592 591.82436526863 L 501.05277749592 682.52436526863 L 587.55277749592 558.02436526863 C 585.85277749592 556.22436526863 584.25277749592 554.42436526863 582.75277749592 552.72436526863 L 505.85277749592 670.22436526863 L 580.55277749592 550.12436526863 C 578.75277749592 547.92436526863 577.15277749592 545.82436526863 575.85277749592 544.02436526863 L 505.75277749592 659.82436526863 L 574.55277749592 542.12436526863 C 570.85277749592 536.72436526863 569.25277749592 533.32436526863 569.25277749592 533.32436526863 C 569.25277749592 533.32436526863 478.25277749592 688.22436526863 471.05277749592 697.52436526863 C 471.05277749592 697.52436526863 473.55277749592 704.02436526863 478.25277749592 708.62436526863 C 482.85277749592 713.22436526863 489.35277749592 715.72436526863 489.35277749592 715.72436526863 C 498.75277749592 708.62436526863 657.05277749592 616.72436526863 657.05277749592 616.72436526863 C 657.05277749592 616.72436526863 653.95277749592 615.32436526863 648.85277749592 611.82436526863 Z"/><path id="text" fill="#76af28" transform="matrix(0.8311170212765958 0 0 0.8311170212765958 430.8366862513751 54.32158245278575)" d="M 180.72129910235 523.05627199281 C 180.40129910235 522.73627199281 180.24129910235 522.32027199281 180.24129910235 521.80827199281 L 180.24129910235 454.32027199281 C 180.24129910235 453.68027199281 180.41729910235 453.18427199281 180.76929910235 452.83227199281 C 181.12129910235 452.48027199281 181.58529910235 452.30427199281 182.16129910235 452.30427199281 L 208.17729910235 452.30427199281 C 217.58529910235 452.30427199281 224.76929910235 453.88827199281 229.72929910235 457.05627199281 C 234.68929910235 460.22427199281 237.16929910235 464.88027199281 237.16929910235 471.02427199281 C 237.16929910235 474.60827199281 236.20929910235 477.63227199281 234.28929910235 480.09627199281 C 232.36929910235 482.56027199281 229.13729910235 484.72027199281 224.59329910235 486.57627199281 C 224.40129910235 486.64027199281 224.30529910235 486.76827199281 224.30529910235 486.96027199281 C 224.30529910235 487.15227199281 224.40129910235 487.28027199281 224.59329910235 487.34427199281 C 229.58529910235 489.00827199281 233.21729910235 491.16827199281 235.48929910235 493.82427199281 C 237.76129910235 496.48027199281 238.89729910235 499.95227199281 238.89729910235 504.24027199281 C 238.89729910235 510.76827199281 236.44929910235 515.61627199281 231.55329910235 518.78427199281 C 226.65729910235 521.95227199281 219.28129910235 523.53627199281 209.42529910235 523.53627199281 L 182.06529910235 523.53627199281 C 181.48929910235 523.53627199281 181.04129910235 523.37627199281 180.72129910235 523.05627199281 Z M 209.61729910235 481.68027199281 C 212.75329910235 481.68027199281 215.36129910235 480.92827199281 217.44129910235 479.42427199281 C 219.52129910235 477.92027199281 220.56129910235 475.76027199281 220.56129910235 472.94427199281 C 220.56129910235 470.00027199281 219.47329910235 467.71227199281 217.29729910235 466.08027199281 C 215.12129910235 464.44827199281 212.27329910235 463.63227199281 208.75329910235 463.63227199281 L 198.86529910235 463.63227199281 C 198.22529910235 463.63227199281 197.76129910235 463.76027199281 197.47329910235 464.01627199281 C 197.18529910235 464.27227199281 197.04129910235 464.68827199281 197.04129910235 465.26427199281 L 197.04129910235 479.95227199281 C 197.04129910235 480.59227199281 197.13729910235 481.04027199281 197.32929910235 481.29627199281 C 197.52129910235 481.55227199281 197.87329910235 481.68027199281 198.38529910235 481.68027199281 L 209.61729910235 481.68027199281 Z M 208.94529910235 512.20827199281 C 213.04129910235 512.20827199281 216.14529910235 511.36027199281 218.25729910235 509.66427199281 C 220.36929910235 507.96827199281 221.42529910235 505.64827199281 221.42529910235 502.70427199281 C 221.42529910235 499.76027199281 220.33729910235 497.47227199281 218.16129910235 495.84027199281 C 215.98529910235 494.20827199281 213.13729910235 493.39227199281 209.61729910235 493.39227199281 L 198.86529910235 493.39227199281 C 198.16129910235 493.39227199281 197.68129910235 493.50427199281 197.42529910235 493.72827199281 C 197.16929910235 493.95227199281 197.04129910235 494.38427199281 197.04129910235 495.02427199281 L 197.04129910235 510.38427199281 C 197.04129910235 511.02427199281 197.13729910235 511.48827199281 197.32929910235 511.77627199281 C 197.52129910235 512.06427199281 197.87329910235 512.20827199281 198.38529910235 512.20827199281 L 208.94529910235 512.20827199281 Z M 262.65729910235 520.12827199281 C 257.69729910235 517.21627199281 253.88929910235 513.04027199281 251.23329910235 507.60027199281 C 248.57729910235 502.16027199281 247.24929910235 495.69627199281 247.24929910235 488.20827199281 C 247.24929910235 480.65627199281 248.59329910235 474.11227199281 251.28129910235 468.57627199281 C 253.96929910235 463.04027199281 257.79329910235 458.78427199281 262.75329910235 455.80827199281 C 267.71329910235 452.83227199281 273.52129910235 451.34427199281 280.17729910235 451.34427199281 C 286.76929910235 451.34427199281 292.52929910235 452.83227199281 297.45729910235 455.80827199281 C 302.38529910235 458.78427199281 306.19329910235 463.04027199281 308.88129910235 468.57627199281 C 311.56929910235 474.11227199281 312.91329910235 480.62427199281 312.91329910235 488.11227199281 C 312.91329910235 495.53627199281 311.58529910235 501.98427199281 308.92929910235 507.45627199281 C 306.27329910235 512.92827199281 302.48129910235 517.13627199281 297.55329910235 520.08027199281 C 292.62529910235 523.02427199281 286.83329910235 524.49627199281 280.17729910235 524.49627199281 C 273.45729910235 524.49627199281 267.61729910235 523.04027199281 262.65729910235 520.12827199281 Z M 291.74529910235 506.92827199281 C 294.14529910235 503.08827199281 295.34529910235 496.88027199281 295.34529910235 488.30427199281 C 295.34529910235 479.53627199281 294.11329910235 473.13627199281 291.64929910235 469.10427199281 C 289.18529910235 465.07227199281 285.36129910235 463.05627199281 280.17729910235 463.05627199281 C 274.86529910235 463.05627199281 270.97729910235 465.07227199281 268.51329910235 469.10427199281 C 266.04929910235 473.13627199281 264.81729910235 479.53627199281 264.81729910235 488.30427199281 C 264.81729910235 496.88027199281 266.03329910235 503.08827199281 268.46529910235 506.92827199281 C 270.89729910235 510.76827199281 274.80129910235 512.68827199281 280.17729910235 512.68827199281 C 285.48929910235 512.68827199281 289.34529910235 510.76827199281 291.74529910235 506.92827199281 Z M 336.96129910235 520.12827199281 C 332.00129910235 517.21627199281 328.19329910235 513.04027199281 325.53729910235 507.60027199281 C 322.88129910235 502.16027199281 321.55329910235 495.69627199281 321.55329910235 488.20827199281 C 321.55329910235 480.65627199281 322.89729910235 474.11227199281 325.58529910235 468.57627199281 C 328.27329910235 463.04027199281 332.09729910235 458.78427199281 337.05729910235 455.80827199281 C 342.01729910235 452.83227199281 347.82529910235 451.34427199281 354.48129910235 451.34427199281 C 361.07329910235 451.34427199281 366.83329910235 452.83227199281 371.76129910235 455.80827199281 C 376.68929910235 458.78427199281 380.49729910235 463.04027199281 383.18529910235 468.57627199281 C 385.87329910235 474.11227199281 387.21729910235 480.62427199281 387.21729910235 488.11227199281 C 387.21729910235 495.53627199281 385.88929910235 501.98427199281 383.23329910235 507.45627199281 C 380.57729910235 512.92827199281 376.78529910235 517.13627199281 371.85729910235 520.08027199281 C 366.92929910235 523.02427199281 361.13729910235 524.49627199281 354.48129910235 524.49627199281 C 347.76129910235 524.49627199281 341.92129910235 523.04027199281 336.96129910235 520.12827199281 Z M 366.04929910235 506.92827199281 C 368.44929910235 503.08827199281 369.64929910235 496.88027199281 369.64929910235 488.30427199281 C 369.64929910235 479.53627199281 368.41729910235 473.13627199281 365.95329910235 469.10427199281 C 363.48929910235 465.07227199281 359.66529910235 463.05627199281 354.48129910235 463.05627199281 C 349.16929910235 463.05627199281 345.28129910235 465.07227199281 342.81729910235 469.10427199281 C 340.35329910235 473.13627199281 339.12129910235 479.53627199281 339.12129910235 488.30427199281 C 339.12129910235 496.88027199281 340.33729910235 503.08827199281 342.76929910235 506.92827199281 C 345.20129910235 510.76827199281 349.10529910235 512.68827199281 354.48129910235 512.68827199281 C 359.79329910235 512.68827199281 363.64929910235 510.76827199281 366.04929910235 506.92827199281 Z M 459.98529910235 522.38427199281 C 459.98529910235 523.15227199281 459.53729910235 523.53627199281 458.64129910235 523.53627199281 L 444.24129910235 523.53627199281 C 442.89729910235 523.53627199281 441.96929910235 523.02427199281 441.45729910235 522.00027199281 L 426.00129910235 491.85627199281 C 425.80929910235 491.47227199281 425.58529910235 491.28027199281 425.32929910235 491.28027199281 C 425.07329910235 491.28027199281 424.68929910235 491.60027199281 424.17729910235 492.24027199281 L 415.63329910235 502.41627199281 C 415.24929910235 502.86427199281 415.05729910235 503.53627199281 415.05729910235 504.43227199281 L 415.05729910235 521.32827199281 C 415.05729910235 522.09627199281 414.84929910235 522.65627199281 414.43329910235 523.00827199281 C 414.01729910235 523.36027199281 413.36129910235 523.53627199281 412.46529910235 523.53627199281 L 400.36929910235 523.53627199281 C 399.60129910235 523.53627199281 399.05729910235 523.39227199281 398.73729910235 523.10427199281 C 398.41729910235 522.81627199281 398.25729910235 522.32027199281 398.25729910235 521.61627199281 L 398.25729910235 454.12827199281 C 398.25729910235 452.91227199281 398.76929910235 452.30427199281 399.79329910235 452.30427199281 L 413.61729910235 452.30427199281 C 414.57729910235 452.30427199281 415.05729910235 452.84827199281 415.05729910235 453.93627199281 L 415.05729910235 482.64027199281 C 415.05729910235 483.28027199281 415.18529910235 483.60027199281 415.44129910235 483.60027199281 C 415.63329910235 483.60027199281 415.88929910235 483.40827199281 416.20929910235 483.02427199281 L 439.44129910235 453.84027199281 C 439.82529910235 453.26427199281 440.24129910235 452.86427199281 440.68929910235 452.64027199281 C 441.13729910235 452.41627199281 441.80929910235 452.30427199281 442.70529910235 452.30427199281 L 454.12929910235 452.30427199281 C 454.70529910235 452.30427199281 455.16929910235 452.43227199281 455.52129910235 452.68827199281 C 455.87329910235 452.94427199281 456.04929910235 453.23227199281 456.04929910235 453.55227199281 C 456.04929910235 453.93627199281 455.92129910235 454.25627199281 455.66529910235 454.51227199281 L 437.23329910235 476.11227199281 C 436.91329910235 476.62427199281 436.75329910235 477.00827199281 436.75329910235 477.26427199281 C 436.75329910235 477.52027199281 436.84929910235 477.90427199281 437.04129910235 478.41627199281 L 459.69729910235 521.23227199281 C 459.88929910235 521.61627199281 459.98529910235 522.00027199281 459.98529910235 522.38427199281 Z"/><path id="text" fill="#03445e" transform="matrix(0.4155585106382979 0 0 0.4155585106382979 432.11328199605595 135.03966755916872)" d="M 403.29859820469 1039.87254398562 L 403.29859820469 1047.07254398562 L 357.41059820469 1047.07254398562 L 357.41059820469 983.71254398562 L 401.85859820469 983.71254398562 L 401.85859820469 990.91254398562 L 365.09059820469 990.91254398562 L 365.09059820469 1011.36054398562 L 393.69859820469 1011.36054398562 L 393.69859820469 1018.56054398562 L 365.09059820469 1018.56054398562 L 365.09059820469 1039.87254398562 L 403.29859820469 1039.87254398562 Z M 458.49859820469 1043.47254398562 C 453.95459820469 1046.51254398562 448.70659820469 1048.03254398562 442.75459820469 1048.03254398562 C 436.80259820469 1048.03254398562 431.61859820469 1046.70454398562 427.20259820469 1044.04854398562 C 422.78659820469 1041.39254398562 419.37859820469 1037.61654398562 416.97859820469 1032.72054398562 C 414.57859820469 1027.82454398562 413.37859820469 1022.04854398562 413.37859820469 1015.39254398562 C 413.37859820469 1008.80054398562 414.57859820469 1003.04054398562 416.97859820469 998.11254398562 C 419.37859820469 993.18454398562 422.78659820469 989.39254398562 427.20259820469 986.73654398562 C 431.61859820469 984.08054398562 436.73859820469 982.75254398562 442.56259820469 982.75254398562 C 448.64259820469 982.75254398562 453.74659820469 984.00054398562 457.87459820469 986.49654398562 C 462.00259820469 988.99254398562 465.09059820469 992.67254398562 467.13859820469 997.53654398562 L 459.55459820469 1001.08854398562 C 458.14659820469 997.37654398562 456.09859820469 994.59254398562 453.41059820469 992.73654398562 C 450.72259820469 990.88054398562 447.29859820469 989.95254398562 443.13859820469 989.95254398562 C 438.78659820469 989.95254398562 434.97859820469 990.96054398562 431.71459820469 992.97654398562 C 428.45059820469 994.99254398562 425.92259820469 997.92054398562 424.13059820469 1001.76054398562 C 422.33859820469 1005.60054398562 421.44259820469 1010.14454398562 421.44259820469 1015.39254398562 C 421.44259820469 1023.32854398562 423.34659820469 1029.55254398562 427.15459820469 1034.06454398562 C 430.96259820469 1038.57654398562 436.16259820469 1040.83254398562 442.75459820469 1040.83254398562 C 447.04259820469 1040.83254398562 450.75459820469 1039.74454398562 453.89059820469 1037.56854398562 C 457.02659820469 1035.39254398562 459.26659820469 1032.19254398562 460.61059820469 1027.96854398562 L 468.29059820469 1030.84854398562 C 466.30659820469 1036.22454398562 463.04259820469 1040.43254398562 458.49859820469 1043.47254398562 Z M 524.16259820469 986.73654398562 C 528.57859820469 989.39254398562 531.98659820469 993.16854398562 534.38659820469 998.06454398562 C 536.78659820469 1002.96054398562 537.98659820469 1008.73654398562 537.98659820469 1015.39254398562 C 537.98659820469 1022.04854398562 536.78659820469 1027.82454398562 534.38659820469 1032.72054398562 C 531.98659820469 1037.61654398562 528.57859820469 1041.39254398562 524.16259820469 1044.04854398562 C 519.74659820469 1046.70454398562 514.56259820469 1048.03254398562 508.61059820469 1048.03254398562 C 502.65859820469 1048.03254398562 497.47459820469 1046.70454398562 493.05859820469 1044.04854398562 C 488.64259820469 1041.39254398562 485.23459820469 1037.61654398562 482.83459820469 1032.72054398562 C 480.43459820469 1027.82454398562 479.23459820469 1022.04854398562 479.23459820469 1015.39254398562 C 479.23459820469 1008.73654398562 480.43459820469 1002.96054398562 482.83459820469 998.06454398562 C 485.23459820469 993.16854398562 488.64259820469 989.39254398562 493.05859820469 986.73654398562 C 497.47459820469 984.08054398562 502.65859820469 982.75254398562 508.61059820469 982.75254398562 C 514.56259820469 982.75254398562 519.74659820469 984.08054398562 524.16259820469 986.73654398562 Z M 493.01059820469 996.72054398562 C 489.20259820469 1001.23254398562 487.29859820469 1007.45654398562 487.29859820469 1015.39254398562 C 487.29859820469 1023.32854398562 489.20259820469 1029.55254398562 493.01059820469 1034.06454398562 C 496.81859820469 1038.57654398562 502.01859820469 1040.83254398562 508.61059820469 1040.83254398562 C 515.20259820469 1040.83254398562 520.40259820469 1038.57654398562 524.21059820469 1034.06454398562 C 528.01859820469 1029.55254398562 529.92259820469 1023.32854398562 529.92259820469 1015.39254398562 C 529.92259820469 1007.45654398562 528.01859820469 1001.23254398562 524.21059820469 996.72054398562 C 520.40259820469 992.20854398562 515.20259820469 989.95254398562 508.61059820469 989.95254398562 C 502.01859820469 989.95254398562 496.81859820469 992.20854398562 493.01059820469 996.72054398562 Z M 631.58659820469 1039.87254398562 L 631.58659820469 1047.07254398562 L 587.61859820469 1047.07254398562 L 587.61859820469 983.71254398562 L 595.29859820469 983.71254398562 L 595.29859820469 1039.87254398562 L 631.58659820469 1039.87254398562 Z M 652.70659820469 1047.07254398562 L 645.02659820469 1047.07254398562 L 645.02659820469 983.71254398562 L 652.70659820469 983.71254398562 L 652.70659820469 1047.07254398562 Z M 698.59459820469 1047.07254398562 L 689.85859820469 1047.07254398562 L 665.76259820469 983.71254398562 L 674.01859820469 983.71254398562 L 690.14659820469 1027.48854398562 L 694.17859820469 1040.06454398562 L 698.21059820469 1027.58454398562 L 714.33859820469 983.71254398562 L 722.59459820469 983.71254398562 L 698.59459820469 1047.07254398562 Z M 758.49859820469 1020.76854398562 L 743.33059820469 1020.76854398562 L 743.33059820469 1047.07254398562 L 735.65059820469 1047.07254398562 L 735.65059820469 983.71254398562 L 759.65059820469 983.71254398562 C 766.11459820469 983.71254398562 771.29859820469 985.37654398562 775.20259820469 988.70454398562 C 779.10659820469 992.03254398562 781.05859820469 996.54454398562 781.05859820469 1002.24054398562 C 781.05859820469 1006.72054398562 779.81059820469 1010.49654398562 777.31459820469 1013.56854398562 C 774.81859820469 1016.64054398562 771.39459820469 1018.75254398562 767.04259820469 1019.90454398562 L 784.89859820469 1047.07254398562 L 775.77859820469 1047.07254398562 L 758.49859820469 1020.76854398562 Z M 743.33059820469 1013.56854398562 L 759.55459820469 1013.56854398562 C 768.51459820469 1013.56854398562 772.99459820469 1009.79254398562 772.99459820469 1002.24054398562 C 772.99459820469 994.68854398562 768.51459820469 990.91254398562 759.55459820469 990.91254398562 L 743.33059820469 990.91254398562 L 743.33059820469 1013.56854398562 Z M 835.10659820469 1029.50454398562 L 806.40259820469 1029.50454398562 L 799.68259820469 1047.07254398562 L 791.61859820469 1047.07254398562 L 816.29059820469 983.71254398562 L 825.41059820469 983.71254398562 L 849.98659820469 1047.07254398562 L 841.82659820469 1047.07254398562 L 835.10659820469 1029.50454398562 Z M 832.32259820469 1022.30454398562 L 823.77859820469 999.84054398562 L 820.80259820469 991.00854398562 L 820.61059820469 991.00854398562 L 817.82659820469 999.55254398562 L 809.18659820469 1022.30454398562 L 832.32259820469 1022.30454398562 Z M 885.69859820469 1020.76854398562 L 870.53059820469 1020.76854398562 L 870.53059820469 1047.07254398562 L 862.85059820469 1047.07254398562 L 862.85059820469 983.71254398562 L 886.85059820469 983.71254398562 C 893.31459820469 983.71254398562 898.49859820469 985.37654398562 902.40259820469 988.70454398562 C 906.30659820469 992.03254398562 908.25859820469 996.54454398562 908.25859820469 1002.24054398562 C 908.25859820469 1006.72054398562 907.01059820469 1010.49654398562 904.51459820469 1013.56854398562 C 902.01859820469 1016.64054398562 898.59459820469 1018.75254398562 894.24259820469 1019.90454398562 L 912.09859820469 1047.07254398562 L 902.97859820469 1047.07254398562 L 885.69859820469 1020.76854398562 Z M 870.53059820469 1013.56854398562 L 886.75459820469 1013.56854398562 C 895.71459820469 1013.56854398562 900.19459820469 1009.79254398562 900.19459820469 1002.24054398562 C 900.19459820469 994.68854398562 895.71459820469 990.91254398562 886.75459820469 990.91254398562 L 870.53059820469 990.91254398562 L 870.53059820469 1013.56854398562 Z M 934.37059820469 1047.07254398562 L 926.69059820469 1047.07254398562 L 926.69059820469 983.71254398562 L 934.37059820469 983.71254398562 L 934.37059820469 1047.07254398562 Z M 990.72259820469 1029.50454398562 L 962.01859820469 1029.50454398562 L 955.29859820469 1047.07254398562 L 947.23459820469 1047.07254398562 L 971.90659820469 983.71254398562 L 981.02659820469 983.71254398562 L 1005.60259820469 1047.07254398562 L 997.44259820469 1047.07254398562 L 990.72259820469 1029.50454398562 Z M 987.93859820469 1022.30454398562 L 979.39459820469 999.84054398562 L 976.41859820469 991.00854398562 L 976.22659820469 991.00854398562 L 973.44259820469 999.55254398562 L 964.80259820469 1022.30454398562 L 987.93859820469 1022.30454398562 Z"/></svg>